<svg width="50" height="40" viewBox="0 0 50 40" fill="none" xmlns="http://www.w3.org/2000/svg">
<path d="M0 1.875C0 0.835938 0.936763 0 2.10115 0H6.08458C8.01064 0 9.71782 1 10.5145 2.5H46.4967C48.7992 2.5 50.4802 4.45312 49.8761 6.4375L46.2866 18.3359C45.5425 20.7891 43.0473 22.5 40.202 22.5H14.9444L15.4172 24.7266C15.6098 25.6094 16.4765 26.25 17.4833 26.25H42.7234C43.8878 26.25 44.8246 27.0859 44.8246 28.125C44.8246 29.1641 43.8878 30 42.7234 30H17.4833C14.4542 30 11.854 28.0781 11.2937 25.4297L6.77621 4.25781C6.71493 3.96094 6.42602 3.75 6.08458 3.75H2.10115C0.936763 3.75 0 2.91406 0 1.875ZM11.2061 36.25C11.2061 35.7575 11.3148 35.2699 11.526 34.8149C11.7372 34.36 12.0467 33.9466 12.437 33.5984C12.8272 33.2501 13.2904 32.9739 13.8003 32.7854C14.3101 32.597 14.8566 32.5 15.4084 32.5C15.9603 32.5 16.5067 32.597 17.0166 32.7854C17.5264 32.9739 17.9897 33.2501 18.3799 33.5984C18.7701 33.9466 19.0797 34.36 19.2909 34.8149C19.502 35.2699 19.6107 35.7575 19.6107 36.25C19.6107 36.7425 19.502 37.2301 19.2909 37.6851C19.0797 38.14 18.7701 38.5534 18.3799 38.9016C17.9897 39.2499 17.5264 39.5261 17.0166 39.7146C16.5067 39.903 15.9603 40 15.4084 40C14.8566 40 14.3101 39.903 13.8003 39.7146C13.2904 39.5261 12.8272 39.2499 12.437 38.9016C12.0467 38.5534 11.7372 38.14 11.526 37.6851C11.3148 37.2301 11.2061 36.7425 11.2061 36.25ZM40.6223 32.5C41.7368 32.5 42.8056 32.8951 43.5937 33.5984C44.3818 34.3016 44.8246 35.2554 44.8246 36.25C44.8246 37.2446 44.3818 38.1984 43.5937 38.9016C42.8056 39.6049 41.7368 40 40.6223 40C39.5077 40 38.4389 39.6049 37.6508 38.9016C36.8627 38.1984 36.42 37.2446 36.42 36.25C36.42 35.2554 36.8627 34.3016 37.6508 33.5984C38.4389 32.8951 39.5077 32.5 40.6223 32.5Z" fill="#AEAEAE"/>
</svg>
