<svg width="50" height="40" viewBox="0 0 50 40" fill="none" xmlns="http://www.w3.org/2000/svg">
<path d="M25 0C11.2198 0 0 8.96774 0 20C0 31.0242 11.2198 40 25 40C38.7802 40 50 31.0242 50 20C50 8.96774 38.7802 0 25 0ZM2.52016 20C2.52016 17.3952 3.21573 14.9194 4.46573 12.6855L15.1915 36.1855C7.69153 33.2661 2.52016 27.1129 2.52016 20ZM25 37.9839C22.7923 37.9839 20.6653 37.7258 18.6492 37.25L25.3931 21.5726L32.2984 36.7177C32.3488 36.8064 32.3992 36.8871 32.4597 36.9677C30.131 37.621 27.621 37.9839 25 37.9839ZM28.0948 11.5726C29.4456 11.5161 30.6653 11.4032 30.6653 11.4032C31.875 11.2903 31.7339 9.8629 30.5242 9.91935C30.5242 9.91935 26.8851 10.1452 24.5363 10.1452C22.3286 10.1452 18.619 9.91935 18.619 9.91935C17.4093 9.8629 17.2681 11.3468 18.4778 11.4032C18.4778 11.4032 19.627 11.5161 20.8367 11.5726L24.3347 19.25L19.4153 31.0484L11.2298 11.5726C12.5806 11.5161 13.8004 11.4032 13.8004 11.4032C15.0101 11.2903 14.869 9.8629 13.6593 9.91935C13.6593 9.91935 10.0202 10.1452 7.67137 10.1452C7.24798 10.1452 6.75403 10.1371 6.21976 10.121C10.2419 5.24194 17.1472 2.01613 25 2.01613C30.8468 2.01613 36.1794 3.80645 40.1815 6.73387C40.0806 6.72581 39.9899 6.71774 39.8891 6.71774C37.6815 6.71774 36.1189 8.25806 36.1189 9.91129C36.1189 11.3952 37.1875 12.6452 38.3266 14.129C39.1835 15.3226 40.1815 16.8629 40.1815 19.0887C40.1815 20.629 39.4456 22.4113 38.4677 24.9032L36.2298 30.8952L28.0948 11.5726ZM36.3004 35.5403L43.1653 19.6613C44.4456 17.0968 44.879 15.0484 44.879 13.2177C44.879 12.5565 44.8286 11.9435 44.7278 11.371C46.4819 13.9355 47.4798 16.871 47.4798 20C47.4798 26.6371 42.9839 32.4274 36.3004 35.5403Z" fill="#AEAEAE"/>
</svg>
