<svg width="50" height="40" viewBox="0 0 50 40" fill="none" xmlns="http://www.w3.org/2000/svg">
<path d="M23.125 7.12041V3.83407H26.875V7.12041H23.125ZM22.5 0C20.4297 0 18.75 1.47201 18.75 3.28634V3.56021H9.5C8.6875 2.10189 6.97656 1.09545 5 1.09545C2.24219 1.09545 0 3.06041 0 5.47724C0 7.89407 2.24219 9.85903 5 9.85903C6.97656 9.85903 8.6875 8.85259 9.5 7.39427H14.7266C10.125 10.1055 7 14.5831 6.60156 19.7181H6.25C4.17969 19.7181 2.5 21.1901 2.5 23.0044V27.3862C2.5 29.2005 4.17969 30.6725 6.25 30.6725H11.25C13.3203 30.6725 15 29.2005 15 27.3862V23.0044C15 21.1901 13.3203 19.7181 11.25 19.7181H10.9922C11.4531 15.1309 14.7812 11.2694 19.3906 9.50986C20.0625 10.3794 21.2031 10.9545 22.5 10.9545H27.5C28.7969 10.9545 29.9297 10.3794 30.6094 9.50986C35.2188 11.2694 38.5469 15.1309 39.0078 19.7181H38.75C36.6797 19.7181 35 21.1901 35 23.0044V27.3862C35 29.2005 36.6797 30.6725 38.75 30.6725H43.75C45.8203 30.6725 47.5 29.2005 47.5 27.3862V23.0044C47.5 21.1901 45.8203 19.7181 43.75 19.7181H43.3984C43.0078 14.5831 39.875 10.1055 35.2734 7.39427H40.5C41.3125 8.85259 43.0234 9.85903 45 9.85903C47.7578 9.85903 50 7.89407 50 5.47724C50 3.06041 47.7578 1.09545 45 1.09545C43.0234 1.09545 41.3125 2.10189 40.5 3.56021H31.25V3.28634C31.25 1.47201 29.5703 0 27.5 0H22.5ZM6.875 23.5521H10.625V26.8385H6.875V23.5521ZM39.375 26.8385V23.5521H43.125V26.8385H39.375Z" fill="#AEAEAE"/>
<path d="M28.5277 36.0907L28.5249 33.3328L21.4361 33.3328V36.0882C21.4361 37.1716 22.4382 38.0472 23.6782 38.0472L26.2855 38.0497C27.5255 38.0497 28.5277 37.1741 28.5277 36.0907ZM28.6438 32.2148L28.8249 31.918L31.6814 27.2853C32.0749 26.6446 32.0919 25.8779 31.7182 25.2249L26.747 16.4986C26.5347 16.1251 26.0987 15.8827 25.6231 15.8777L25.6203 23.4737C25.8835 23.5553 26.1298 23.6864 26.3393 23.8694C27.0895 24.5249 27.0895 25.5885 26.3393 26.2439C25.5891 26.8994 24.3718 26.8994 23.6216 26.2439C22.8714 25.5885 22.8714 24.5249 23.6216 23.8694C23.8311 23.6864 24.0774 23.5553 24.3407 23.4737L24.3407 15.8753C23.8622 15.8827 23.4262 16.1201 23.2168 16.4961L18.2427 25.2249C17.8718 25.8754 17.886 26.6446 18.2795 27.2853L21.136 31.918L21.3172 32.2148L28.6438 32.2148Z" fill="#AEAEAE"/>
</svg>
