<svg width="50" height="40" viewBox="0 0 50 40" fill="none" xmlns="http://www.w3.org/2000/svg">
<path d="M5 5.71429C5 2.5625 7.24219 0 10 0H40C42.7578 0 45 2.5625 45 5.71429V28.5714H40V5.71429H10V28.5714H5V5.71429ZM0 33.1429C0 32.1964 0.671875 31.4286 1.5 31.4286H48.5C49.3281 31.4286 50 32.1964 50 33.1429C50 36.9286 47.3125 40 44 40H6C2.6875 40 0 36.9286 0 33.1429ZM21.9531 15.8036L19.5312 18.5714L21.9531 21.3393C22.6875 22.1786 22.6875 23.5357 21.9531 24.3661C21.2188 25.1964 20.0312 25.2054 19.3047 24.3661L15.5547 20.0804C14.8203 19.2411 14.8203 17.8839 15.5547 17.0536L19.3047 12.7679C20.0391 11.9286 21.2266 11.9286 21.9531 12.7679C22.6797 13.6071 22.6875 14.9643 21.9531 15.7946V15.8036ZM30.7031 12.7679L34.4531 17.0536C35.1875 17.8929 35.1875 19.25 34.4531 20.0804L30.7031 24.3661C29.9688 25.2054 28.7812 25.2054 28.0547 24.3661C27.3281 23.5268 27.3203 22.1696 28.0547 21.3393L30.4766 18.5714L28.0547 15.8036C27.3203 14.9643 27.3203 13.6071 28.0547 12.7768C28.7891 11.9464 29.9766 11.9375 30.7031 12.7768V12.7679Z" fill="#AEAEAE"/>
</svg>
